<?xml version="1.0"?>
<svg xmlns="http://www.w3.org/2000/svg" xmlns:xlink="http://www.w3.org/1999/xlink" xmlns:svgjs="http://svgjs.com/svgjs" version="1.1" width="512" height="512" x="0" y="0" viewBox="0 0 512 512" style="enable-background:new 0 0 512 512" xml:space="preserve"><g>
<g xmlns="http://www.w3.org/2000/svg">
	<g>
		<path d="M502.447,93.177c5.277,0,9.553-4.277,9.553-9.553V47.325c0-5.276-4.276-9.553-9.553-9.553H9.553    C4.277,37.773,0,42.05,0,47.325v269.372v147.978c0,5.276,4.277,9.553,9.553,9.553h492.895c5.277,0,9.553-4.277,9.553-9.553    V316.697V119.922c0-5.276-4.276-9.553-9.553-9.553s-9.553,4.277-9.553,9.553v187.223H325.732v-19.107h92.651    c5.277,0,9.553-4.277,9.553-9.553c0-20.016,16.284-36.3,36.3-36.3c5.277,0,9.553-4.277,9.553-9.553V131.386    c0-5.276-4.276-9.553-9.553-9.553c-20.016,0-36.3-16.284-36.3-36.3c0-5.276-4.276-9.553-9.553-9.553h-92.651V56.878h167.163    v26.746C492.895,88.9,497.17,93.177,502.447,93.177z M19.105,56.878h167.163v19.103H93.616c-5.276,0-9.553,4.277-9.553,9.553    c0,20.016-16.284,36.3-36.3,36.3c-5.276,0-9.553,4.277-9.553,9.553v101.246c0,5.276,4.277,9.553,9.553,9.553    c20.016,0,36.3,16.284,36.3,36.3c0,5.276,4.277,9.553,9.553,9.553h92.651v19.107H19.105V56.878z M186.269,455.122H19.105v-17.884    h167.163V455.122z M186.269,381.132H87.882c-5.276,0-9.553,4.277-9.553,9.553s4.277,9.553,9.553,9.553h98.386v17.895H19.105    v-17.895H56.04c5.276,0,9.553-4.277,9.553-9.553s-4.277-9.553-9.553-9.553H19.105v-17.883h167.163V381.132z M186.269,344.144    H19.105V326.25h167.163V344.144z M306.626,455.122H205.374V326.25h101.252V455.122z M306.626,307.144H205.374v-70.179    c0-5.276-4.277-9.553-9.553-9.553s-9.553,4.277-9.553,9.553v31.967h-83.922c-3.999-22.909-22.12-41.029-45.029-45.029v-83.789    c22.909-3.999,41.029-22.12,45.029-45.029h83.922v110.037c0,5.276,4.277,9.553,9.553,9.553s9.553-4.277,9.553-9.553V56.878    h101.252V307.144z M492.895,418.133H347.701c-5.277,0-9.553,4.277-9.553,9.553s4.276,9.553,9.553,9.553h145.193v17.884H325.732    v-54.885h167.163V418.133z M492.895,381.132H325.732v-17.883h167.163V381.132z M492.895,326.25v17.894H325.732V326.25H492.895z     M409.654,95.086c3.998,22.909,22.119,41.029,45.029,45.029v83.789c-22.909,3.999-41.031,22.12-45.029,45.029H325.73V95.086    H409.654z" fill="#242424" data-original="#000000" style=""/>
	</g>
</g>
<g xmlns="http://www.w3.org/2000/svg">
</g>
<g xmlns="http://www.w3.org/2000/svg">
</g>
<g xmlns="http://www.w3.org/2000/svg">
</g>
<g xmlns="http://www.w3.org/2000/svg">
</g>
<g xmlns="http://www.w3.org/2000/svg">
</g>
<g xmlns="http://www.w3.org/2000/svg">
</g>
<g xmlns="http://www.w3.org/2000/svg">
</g>
<g xmlns="http://www.w3.org/2000/svg">
</g>
<g xmlns="http://www.w3.org/2000/svg">
</g>
<g xmlns="http://www.w3.org/2000/svg">
</g>
<g xmlns="http://www.w3.org/2000/svg">
</g>
<g xmlns="http://www.w3.org/2000/svg">
</g>
<g xmlns="http://www.w3.org/2000/svg">
</g>
<g xmlns="http://www.w3.org/2000/svg">
</g>
<g xmlns="http://www.w3.org/2000/svg">
</g>
</g></svg>
