<?xml version="1.0" encoding="utf-8"?>
<!-- Generator: Adobe Illustrator 25.2.3, SVG Export Plug-In . SVG Version: 6.00 Build 0)  -->
<svg version="1.1" id="Calque_1" xmlns="http://www.w3.org/2000/svg" xmlns:xlink="http://www.w3.org/1999/xlink" x="0px" y="0px"
	 viewBox="0 0 313.8 54" style="enable-background:new 0 0 313.8 54;" xml:space="preserve">
<style type="text/css">
	.st0{fill:#FFFFFF;}
</style>
<path class="st0" d="M206,0.3c-14.7,0-26.6,11.5-26.6,25.7s11.9,25.7,26.6,25.7s26.6-11.5,26.6-25.7S220.7,0.3,206,0.3z M205.8,43.5
	c-9.6,0-17.5-7.8-17.5-17.5s7.8-17.5,17.5-17.5s17.5,7.8,17.5,17.5S215.4,43.5,205.8,43.5z"/>
<path class="st0" d="M80.5,52.7v-26h28.9c0,0,13.4-8.6,0.7-17c-0.2-0.2-0.5-0.3-0.7-0.5H89l-8.4-8.5h30.6c0,0,13.8,6.2,12.8,17.5
	c0,0,0,12.7-11.9,17.7l-22.8-0.2v16.9H80.5z"/>
<polygon class="st0" points="49,26.7 74.6,0.4 74.6,52.4 65.7,52.4 66,21.5 49,38.6 "/>
<polygon class="st0" points="296.7,10.7 313.8,10.7 313.8,1.2 287.3,1.2 287.3,54 296.7,54 "/>
<path class="st0" d="M130,53.2v-26h28.9c0,0,13.4-8.6,0.7-17c-0.2-0.2-0.5-0.3-0.7-0.5h-20.5L130,1.2h30.6c0,0,13.8,6.2,12.8,17.5
	c0,0,0,12.7-11.9,17.7l-22.8-0.2v16.9H130z"/>
<path class="st0" d="M0,52V26h28.9c0,0,13.4-8.6,0.7-17c-0.2-0.2-0.5-0.3-0.7-0.5H8.4L0,0h30.6c0,0,13.8,6.2,12.8,17.5
	c0,0,0,12.7-11.9,17.7L42.8,52h-9.6L22.7,35.1l-14,0V52H0z"/>
<path class="st0" d="M237.9,53.2v-26h28.9c0,0,13.4-8.6,0.7-17c-0.2-0.2-0.5-0.3-0.7-0.5h-20.5l-8.4-8.5h30.6
	c0,0,13.8,6.2,12.8,17.5c0,0,0,12.7-11.9,17.7l11.3,16.8H271l-10.4-16.9l-14,0v16.9H237.9z"/>
<path class="st0" d="M30.6,0"/>
</svg>
